<?xml version="1.0" encoding="UTF-8"?>
<!DOCTYPE svg PUBLIC "-//W3C//DTD SVG 1.1//EN" "http://www.w3.org/Graphics/SVG/1.1/DTD/svg11.dtd">
<!-- Creator: CorelDRAW -->
<svg xmlns="http://www.w3.org/2000/svg" xml:space="preserve" width="136.318mm" height="102.858mm" version="1.1" style="shape-rendering:geometricPrecision; text-rendering:geometricPrecision; image-rendering:optimizeQuality; fill-rule:evenodd; clip-rule:evenodd"
viewBox="0 0 13631.8 10285.8"
 xmlns:xlink="http://www.w3.org/1999/xlink"
 xmlns:xodm="http://www.corel.com/coreldraw/odm/2003">
 <defs>
  <style type="text/css">
   <![CDATA[
    .fil0 {fill:#FEFEFE}
   ]]>
  </style>
 </defs>
 <g id="Camada_x0020_1">
  <metadata id="CorelCorpID_0Corel-Layer"/>
  <g id="_2497167989376">
   <path class="fil0" d="M2104.2 3664.26c5.07,60.89 120.86,183.01 136.54,250.32 79.57,-18.54 123,-94.37 185.21,-140.97 130.34,-97.62 271.72,-166.22 424.87,-227.47 79.88,-31.96 156.9,-60.45 238.52,-87.65 515.91,-171.92 1072.64,-260.52 1629.51,-335.1 92.07,-12.33 194.24,-18.32 293.75,-32.42l610.98 -48.96c98.59,-2.81 212.73,-15.51 311.06,-15.09 110.29,0.45 202.74,-7.72 318.94,-7.23 56.71,0.22 94.89,-7.85 159.11,-7.77l606.84 0c233.89,0 462.44,12.05 690.57,14.87l220.78 14.36c74.09,8.32 150.95,2.93 226.06,9.1l540.24 43.82c43.27,4.63 69.73,6.75 112.28,9.1 296.58,16.38 943.62,123.35 1229.76,181.11 443.06,89.45 1015.11,247.8 1354.83,533.92 175.59,147.88 297.42,337.45 391.69,548.91 195.59,438.76 231.48,941.04 225.26,1444.11l-37.52 455.52c-5.64,59.31 -13.12,121.15 -22.33,174.9 -38.39,224.23 -78.13,438.28 -137.67,651.21 -54.55,195.11 -121.62,395.53 -212.38,576.49 -21.61,43.07 -41.53,87.74 -65.84,131.38 -53.13,95.43 -170.59,291.48 -252.75,346.5 10.1,-43.38 37.88,-78.46 58.18,-116.27l187.18 -358.99c62.24,-129.63 100.7,-264.47 146.15,-399.99 136.7,-407.64 230.49,-959.63 230.49,-1407.95 0,-347.92 -24.57,-657.45 -97.03,-964.93 -104.98,-445.54 -319.44,-854.9 -711.35,-1093.97 -49.29,-30.07 -90.77,-57.53 -142.28,-85.27 -155.68,-83.81 -321.08,-138.46 -491.5,-191.19 -364.43,-112.76 -1129.6,-247.84 -1517.52,-295.38 -148.96,-18.25 -460.11,-60.01 -612.99,-62.11 -47.23,-0.65 -59.71,-7.75 -106.16,-7.63 -71.51,0.2 -147.2,-11.61 -212.43,-15.12l-547.29 -21.61c-83.19,-9.34 -1078.56,-1.21 -1220.18,6.44 -35.23,1.9 -46.77,7.98 -90.8,7.8 -123.36,-0.51 -245.94,13.44 -372.17,14.7l-550.23 41.42c-119.15,16.87 -230.55,21.63 -348.85,38 -646.59,89.49 -1964.42,261.94 -2417.32,715.44 -103.07,103.21 -108.95,115.71 -29.92,246.1 13.78,22.72 21.19,39.54 36.25,62.37 77.63,117.83 161.6,230.87 255.42,336.22l720.46 743.53 511.97 466.54c229.56,222.96 602.97,519.63 846.36,723.82 319.7,269.05 649.09,533.23 983.75,783.64 504.84,377.75 259.14,217.86 696.86,82.44 416.22,-128.76 821.84,-62.67 1147.48,181.95 331.42,248.97 339.15,405.99 518.98,702.26 17.23,28.38 28.53,47.46 45.48,75.88 199.27,334.19 511.11,416.52 879.84,470.36 399.42,58.34 896.82,-1.29 1280.9,-98.87 644.07,-163.62 1094.96,-424.97 1420.3,-1022.19 46.22,-84.85 85.25,-162.47 129.12,-250.15 87.75,-175.39 147.3,-358.24 202.3,-548.66 182.81,-632.9 248.84,-1471.95 113.09,-2151.24 -45.99,-230.07 -114.64,-435.49 -216.88,-640.28 -90.82,-181.95 -226.19,-359.14 -382.13,-475.01 -297.92,-221.39 -698.57,-343.46 -1067.16,-427.16l-528.61 -108.55c-374.54,-74.64 -757.25,-110.79 -1138.44,-151.09 -262.02,-27.7 -531.22,-39.72 -795.58,-61.57l-614.02 -23.15c-75.95,0.18 -125.65,-7.61 -204.8,-7.58l-318.89 0.29c-43.05,-0.53 -52.47,-8.08 -98.04,-8.14 -278.52,-0.39 -566.07,16.43 -842.27,15.41 -173.79,-0.65 -343.35,17.79 -516.01,22.54l-295.66 22.92c-135.99,6.49 -267.12,17.76 -400.75,31.62 -755.51,78.35 -1760.41,216.77 -2431.17,557.47 -27.99,14.22 -39.53,23.5 -68.18,38.01 -40.68,20.63 -176.23,116.97 -202.26,123.92z"/>
   <path class="fil0" d="M7740.13 2253.38c-10.98,-15 -57.06,-40.72 -75.77,-53.17l-245.79 -163.81c-276.88,-183.88 -555.47,-354.63 -842.19,-523.18l-388.04 -218.79c-17.72,-10.58 -24.03,-14.97 -43.57,-24.7l-447.62 -235.06c-63.67,-31.84 -118.42,-59.33 -181.96,-91.12 -370.93,-185.59 -755.22,-346.13 -1143.84,-487.02l-305.27 -104.34c-274.13,-80.66 -435.69,-141.98 -748.83,-206.92 -267.41,-55.47 -543.16,-99.32 -819.76,-128.41 -58.15,-6.12 -159.49,-12.31 -267.06,-16.33l-367.56 0c-10.8,0.91 -20.42,1.97 -28.53,3.2l-253.32 19.76c-663.18,56.93 -1227.84,350.04 -1474.04,976.03 -213.89,543.83 -99.65,1282.21 117.13,1821.69 51.39,127.87 102.48,252.19 160.71,377.86 168.13,362.85 376.85,708.01 598.26,1040.16l111.12 161.97c77.17,103.98 147.75,215.61 230.46,315.68 21.53,26.04 39.58,51.74 58.94,77.6 90.11,120.43 292.07,379 396.35,491.14 54.75,58.88 101.75,125.38 159.32,182.02 25.17,24.76 34.87,42.87 60.69,68.27l739.59 762.3c74.11,74.97 354.83,337.36 422.22,389.42 30.67,23.68 44.67,42.51 72.66,63.88 16.81,12.84 20.03,16.83 35.94,32.32l629.19 531.38c326.89,264.66 670.09,512.49 1015.72,751.66 296.29,205.03 593.83,406.34 903.36,590.96l874.62 490.75c59.48,30.97 121.67,61.31 182.04,91.05 29.35,14.45 57.01,24.39 88.62,40.32l275.68 133.93c806.14,358.45 1369.67,587.53 2234.42,761.8 77.66,15.65 156.72,30.54 231.99,41.09 82.97,11.63 156.07,24.24 240.78,32.29 168.09,15.99 328.75,37.24 501.33,37.23 91.01,0 182.08,-0.31 273.09,0.03 275.69,1.02 687.74,-76.83 926.54,-165.76 70.85,-26.38 125.68,-49.37 191.02,-82.05 134.9,-67.48 251.5,-152.45 363.4,-251.02 125.11,-110.18 246.36,-290.78 307.02,-443.93 118.89,-300.16 138.69,-540.27 138.69,-953.61 -48.86,35.8 -89.14,275.94 -114.67,355.63 -41.6,129.9 -82.97,219.71 -148.37,329.5 -236.74,397.39 -674.07,599.1 -1125.08,649.9 -401.9,45.27 -819.15,-13.09 -1187.74,-94.2 -66.39,-14.61 -122.26,-30.39 -188.26,-46.88 -251.09,-62.76 -488.81,-134.79 -728.36,-227.4 -60.7,-23.48 -114.15,-41.29 -171.18,-63.97l-1156.26 -512.52c-114.23,-47.15 -275.79,-140.48 -391.14,-200.53 -435.86,-226.88 -861.79,-482.75 -1268.47,-756.82l-421.58 -291.44c-49.2,-32.79 -90.15,-63.84 -136.95,-98.2 -48.26,-35.46 -92.22,-65.01 -140.97,-101.76 -93.74,-70.68 -179.38,-134.04 -273.13,-204.74 -258.5,-194.94 -583.56,-452.81 -817.67,-661.48 -13.64,-12.16 -16.02,-16.66 -31.78,-28.91 -27.68,-21.49 -39.96,-37.12 -65.06,-56.31 -105.23,-80.42 -511.16,-458.19 -624.06,-566.85l-417.15 -417.23c-24.13,-24.02 -32.52,-40.69 -56.67,-64.71 -20.92,-20.82 -36.12,-36 -57,-56.77l-56.95 -64.42c-17.93,-20.38 -37.1,-37.37 -56.86,-56.91 -24.82,-24.54 -34.05,-41.14 -56.7,-64.67l-549.95 -633.37c-19.66,-24.04 -33.85,-43.14 -53.73,-67.63 -20.11,-24.78 -33.07,-43.8 -53.08,-68.3 -106.31,-130.2 -203.19,-268.96 -296.51,-408.93 -33.84,-50.75 -65.36,-95.01 -97.05,-145.67 -399.14,-638.24 -961.15,-1679.12 -607.56,-2499.29 12.31,-28.56 23.39,-49.89 38.68,-75.11 177.3,-292.71 387.93,-453.44 734.01,-585.83 610.2,-233.44 1397.6,-150.69 2061.91,15.35 193.98,48.49 365.64,96.8 553.56,159.48 293.9,98.03 581.02,205.28 866.2,324.7 116,48.58 217.74,97.66 331.62,146.27 110.72,47.25 214.29,110.98 322.91,154.95 84.83,34.35 226.19,115.19 317.22,160.67l682.75 379.2c117.93,70.22 440.96,287.11 533.33,308.63z"/>
   <path class="fil0" d="M12435.49 5499.92c0,444.31 -43.68,595.39 -100.95,991.36 -4.7,32.56 -14.48,89.32 -16.69,128.98 -1.73,31.24 2.89,25.69 85.51,8.1 98.98,-21.06 205.7,-72.45 283.58,-133.62 123.13,-96.72 175.66,-159.19 212.05,-341.68 54.5,-273.43 55.8,-737.62 10.2,-1028.24 -11.25,-71.72 -28.31,-167.22 -56.62,-216.44 -18.15,-31.54 -34.49,-50.15 -58.22,-78.32 -13.46,-15.98 -15.09,-22.37 -30.49,-37.78 -17.05,-17.05 -24.36,-18.8 -41.82,-34.04 -55.92,-48.78 -96.4,-74.13 -165.08,-107.99 -49.46,-24.39 -147.38,-60.57 -220.09,-60.57 0,182.84 98.62,579.8 98.62,910.24z"/>
   <polygon class="fil0" points="7740.13,2253.38 7754.93,2262.11 "/>
   <rect class="fil0" x="11631.15" y="2186.37" width="710.51" height="710.51" rx="176.4" ry="176.4"/>
   <rect class="fil0" x="12748.2" y="2805.04" width="876.46" height="876.46" rx="217.59" ry="217.59"/>
   <rect class="fil0" x="12897.22" y="1947.42" width="442.8" height="442.8" rx="109.93" ry="109.93"/>
  </g>
 </g>
</svg>
